<svg id="Capa_1" enable-background="new 0 0 512 512" height="512" viewBox="0 0 512 512" width="512" xmlns="http://www.w3.org/2000/svg"><g><g><path d="m184.717 399.101 22.447 61.117-22.447 44.282h-54.225c.001-75.53 54.225-105.399 54.225-105.399z" fill="#e7886e"/><path d="m381.507 504.5h-54.225l-20.634-43.516 20.634-61.882c.001-.001 54.225 29.868 54.225 105.398z" fill="#e7886e"/><path d="m184.717 399.101h142.565v105.399h-142.565z" fill="#fbe29f"/><path d="m301.213 404.395c0 24.97-20.242 56.721-45.213 56.721-24.97 0-45.213-31.751-45.213-56.721s20.243-45.213 45.213-45.213 45.213 20.243 45.213 45.213z" fill="#ffcabd"/><circle cx="422.201" cy="258.902" fill="#ffcabd" r="47.557"/><circle cx="256" cy="248.933" fill="#ffd3bc" r="166.201"/><path d="m427.158 179.074c47.455-126.996-13.732-171.574-171.158-171.574s-218.612 44.578-171.158 171.574z" fill="#fbe29f"/><path d="m212.771 8.809c-125.071 8.161-170.762 55.636-127.929 170.265h38.082c8.532-71.612 40.493-134.944 89.847-170.265z" fill="#fccb88"/><path d="m213.465 409.631c-55.899-40.838-92.847-111.418-92.847-191.659 0-26.723 3.214-52.817 9.333-77.362-17.252 20.057-29.799 44.275-35.929 70.944-1.344-.132-2.744-.209-4.224-.209-26.265 0-47.557 21.292-47.557 47.557s21.292 47.558 47.557 47.558c3.684 0 6.921-.433 9.789-1.226 18.362 50.995 60.947 90.424 113.878 104.397z" fill="#ffcabd"/><path d="m435.662 166.109c-45.566-23.249-109.809-36.61-179.663-36.61-69.853 0-134.094 13.36-179.661 36.608-16.851 8.597-21.71 30.395-9.978 45.236v.001c8.88 11.233 24.431 14.509 37.192 8.014 36.561-18.608 93.091-30.04 152.447-30.04 59.358 0 115.888 11.433 152.448 30.041 12.761 6.495 28.312 3.22 37.192-8.013 11.732-14.841 6.874-36.639-9.977-45.237z" fill="#e7886e"/><ellipse cx="256" cy="69.771" fill="#e7886e" rx="25.473" ry="32.047"/><g fill="#ff9db0"><ellipse cx="157.108" cy="281.154" rx="36.489" ry="29.058"/><ellipse cx="354.892" cy="281.154" rx="36.489" ry="29.058"/></g><path d="m128.661 146c-19.248 5.475-36.863 12.221-52.322 20.108-16.851 8.597-21.71 30.395-9.978 45.236 8.88 11.233 24.431 14.509 37.192 8.014 5.302-2.699 11.037-5.241 17.127-7.625.422-22.605 3.147-44.702 7.981-65.733z" fill="#e27858"/></g><g><path d="m223.028 69.771c0 21.806 14.792 39.547 32.973 39.547s32.973-17.741 32.973-39.547c0-21.807-14.792-39.547-32.973-39.547s-32.973 17.74-32.973 39.547zm50.945 0c0 13.306-8.23 24.547-17.973 24.547s-17.973-11.241-17.973-24.547 8.23-24.547 17.973-24.547 17.973 11.241 17.973 24.547z"/><path d="m178.374 260.682c4.142 0 7.5-3.358 7.5-7.5v-14.917c0-4.142-3.358-7.5-7.5-7.5s-7.5 3.358-7.5 7.5v14.917c0 4.142 3.358 7.5 7.5 7.5z"/><path d="m333.627 260.682c4.142 0 7.5-3.358 7.5-7.5v-14.917c0-4.142-3.358-7.5-7.5-7.5s-7.5 3.358-7.5 7.5v14.917c0 4.142 3.358 7.5 7.5 7.5z"/><path d="m256 269.561c10.011 0 19.531-4.336 26.12-11.896 2.722-3.123 2.396-7.86-.726-10.582-3.123-2.721-7.861-2.396-10.582.727-3.74 4.29-9.138 6.751-14.812 6.751s-11.073-2.46-14.812-6.751c-2.722-3.123-7.459-3.448-10.582-.727s-3.448 7.459-.727 10.582c6.59 7.56 16.11 11.896 26.121 11.896z"/><path d="m94.838 313.714c14.75 36.563 41.593 66.994 75.551 86.311-28.521 22.996-47.396 59.707-47.396 104.475 0 4.142 3.358 7.5 7.5 7.5h251.015c4.142 0 7.5-3.358 7.5-7.5 0-44.842-18.958-81.545-47.396-104.475 33.958-19.316 60.8-49.748 75.55-86.311 1.677.154 3.36.245 5.04.245 30.358 0 55.057-24.699 55.057-55.057 0-18.318-9.147-35.253-23.937-45.406 11.863-17.818 6.315-41.886-12.049-52.84 12.497-41.703 12.068-74.208-1.3-99.212-12.394-23.184-35.427-39.286-70.415-49.227-3.983-1.133-8.132 1.18-9.264 5.165-1.132 3.984 1.18 8.132 5.165 9.264 30.866 8.77 50.913 22.466 61.287 41.87 11.172 20.897 11.471 48.907.872 85.447-.027-.012-.054-.023-.08-.035-51.679-23.15-114.921-31.928-171.539-31.928-28.692 0-56.735 2.218-83.351 6.592-4.388.721-7.189 5.081-6.02 9.375.992 3.67 4.623 6.064 8.455 5.434 25.834-4.247 53.058-6.401 80.916-6.401 56.748 0 121.772 9.086 172.959 34.152h.002c1.105.542 2.208 1.084 3.293 1.637 6.058 3.091 10.361 8.659 11.807 15.278 4.05 18.544-15.363 33.181-32.21 24.606-37.961-19.322-96.223-30.857-155.85-30.857-101.151 0-155.593 30.783-155.854 30.858-16.841 8.557-36.256-6.063-32.206-24.61 1.446-6.619 5.75-12.187 11.807-15.278 20.921-10.668 44.274-18.364 67.124-23.764 3.529-.834 5.881-4.035 5.772-7.524-.142-4.754-4.605-8.174-9.222-7.083-21.68 5.122-41.479 11.679-59.04 19.54-11.893-41.034-10.04-71.508 5.605-92.994 11.519-15.82 30.588-27.206 58.297-34.809 27.354-7.504 62.588-11.152 107.717-11.152 31.709 0 58.194 1.787 80.967 5.461 4.087.66 7.939-2.12 8.599-6.209s-2.12-7.939-6.209-8.599c-23.572-3.804-50.839-5.653-83.357-5.653-95.636 0-152.242 16.566-178.14 52.133-18.884 25.933-21.225 61.482-7.133 108.521-8.91 5.315-15.213 14.008-17.441 24.21-2.177 9.962-.203 20.228 5.393 28.631-14.791 10.152-23.938 27.088-23.938 45.407 0 32.176 27.695 57.793 60.097 54.812zm196.494 105.332c-5.482 17.727-19.734 34.57-35.331 34.57s-29.849-16.843-35.332-34.57c23.158 4.784 47.568 4.771 70.663 0zm-114.115-5.172v83.126h-39.036c1.781-35.17 16.619-63.774 39.036-83.126zm142.565 83.126h-127.564v-86.454c3.962 1.569 7.969 2.981 12.014 4.247 4.625 26.429 25.766 53.823 51.769 53.823s47.143-27.394 51.768-53.823c4.046-1.266 8.052-2.678 12.014-4.247v86.454zm54.033 0h-39.032v-83.125c14.057 12.176 36.714 38.522 39.032 83.125zm88.444-238.098c0 22.027-17.873 39.958-39.877 40.057 6.768-22.52 8.815-46.236 6.249-69.338 4.884-.84 9.54-2.642 13.729-5.329 12.211 7.124 19.899 20.288 19.899 34.61zm-206.26-62.084c47.154 0 107.255 7.951 149.046 29.225 2.698 1.373 5.513 2.408 8.418 3.097 10.101 80.077-41.583 153.489-117.242 173.325-27.078 7.058-54.541 6.748-80.475-.008-76.556-20.089-127.149-94.167-117.21-173.318 2.567-.609 5.723-1.726 8.418-3.097 35.955-18.299 91.673-29.224 149.045-29.224zm-186.357 27.474c4.189 2.687 8.844 4.489 13.728 5.328-2.572 23.247-.487 46.927 6.249 69.339-22.004-.098-39.877-18.03-39.877-40.057-.001-14.323 7.688-27.487 19.9-34.61z"/></g></g></svg>