<svg id="Capa_1" enable-background="new 0 0 512 512" height="512" viewBox="0 0 512 512" width="512" xmlns="http://www.w3.org/2000/svg"><g><g><path d="m220.167 314.169-148.274-72.805c-59.919 92.308 38.926 101.91 11.673 180.33-4.693 13.504 6.352 27.272 20.566 25.749 22.187-2.378 52.038-11.688 76.969-40.935 46.169-54.16 39.066-92.339 39.066-92.339z" fill="#00d1b3"/><path d="m291.833 314.169 148.275-72.806c59.919 92.308-38.926 101.91-11.673 180.33 4.693 13.504-6.352 27.272-20.566 25.749-22.187-2.378-52.038-11.688-76.969-40.935-46.17-54.159-39.067-92.338-39.067-92.338z" fill="#50e1cd"/><path d="m47.534 217.268c0-114.948 93.518-208.466 208.466-208.466s208.466 93.518 208.466 208.466z" fill="#50e1cd"/><path d="m165.914 55.253-14.707-18.122c-61.952 36.174-103.673 103.368-103.673 180.137h67.439c-.188-3.957-.289-7.937-.289-11.942 0-56.774 19.183-108.933 51.23-150.073z" fill="#00d1b3"/><path d="m385.959 504.5c0-89.614-58.868-129.72-58.868-129.72h-142.181s-58.868 40.106-58.868 129.72z" fill="#ff889e"/><path d="m204.601 374.949v27.241c0 15.045 12.196 27.241 27.241 27.241 10.504 0 19.613-5.948 24.158-14.657 4.546 8.708 13.655 14.657 24.158 14.657 15.045 0 27.241-12.196 27.241-27.241v-27.241z" fill="#fff"/><circle cx="428.769" cy="227.467" fill="#ffcabd" r="48.784"/><g><path d="m154.732 483.815c0-49.456 25.389-91.762 61.316-109.036h-31.138s-58.868 40.106-58.868 129.72h30.2c-.992-6.714-1.51-13.626-1.51-20.684z" fill="#ff748f"/></g><path d="m269.556 112.503c-7.451-7.467-19.661-7.467-27.112 0-58.997 59.118-154.874 66.366-154.924 66.37-2.803 12.349-4.289 25.198-4.289 38.396 0 95.418 77.351 172.769 172.769 172.769s172.769-77.351 172.769-172.769c0-13.197-1.486-26.046-4.289-38.396-.072-.006-95.933-7.258-154.924-66.37z" fill="#ffdcce"/><circle cx="256" cy="464.784" fill="#fff" r="15.219"/><path d="m165.523 30.147c-52.13-64.547-56.678 29.397-56.678 29.397l16.011 19.825s92.797 15.324 40.667-49.222z" fill="#bc9bdd"/><path d="m86.673 77.45s-92.797-15.324-40.667 49.222c52.131 64.547 56.678-29.397 56.678-29.397z" fill="#bc9bdd"/><path d="m129.897 58.919c-9.115-11.286-25.654-13.046-36.94-3.931l-7.395 5.972c-11.286 9.115-13.046 25.654-3.931 36.94 9.115 11.286 25.654 13.046 36.94 3.931l7.395-5.972c11.286-9.115 13.046-25.654 3.931-36.94z" fill="#ffb5ec"/><path d="m346.477 30.147c52.13-64.547 56.678 29.397 56.678 29.397l-16.011 19.825s-92.797 15.324-40.667-49.222z" fill="#bc9bdd"/><path d="m425.327 77.45s92.797-15.324 40.667 49.222c-52.131 64.547-56.678-29.397-56.678-29.397z" fill="#bc9bdd"/><path d="m382.103 58.919c9.115-11.286 25.654-13.046 36.94-3.931l7.395 5.972c11.286 9.115 13.046 25.654 3.931 36.94-9.115 11.286-25.654 13.046-36.94 3.931l-7.395-5.972c-11.286-9.115-13.046-25.654-3.931-36.94z" fill="#ffb5ec"/><path d="m180.944 372.924c-41.001-43.319-66.26-102.426-66.26-167.598 0-10.481.656-20.805 1.923-30.933-17.527 3.604-29.07 4.478-29.088 4.479-.002.008-.003.016-.005.023-1.356-.134-2.775-.212-4.284-.212-26.943 0-48.784 21.841-48.784 48.784s21.842 48.785 48.784 48.785c3.77 0 7.033-.442 9.884-1.252 15.259 43.044 47.093 78.245 87.83 97.924z" fill="#ffcabd"/><g><g><g><ellipse cx="148.34" cy="248.88" fill="#ff9db0" rx="39.725" ry="31.635"/></g><g><ellipse cx="363.66" cy="248.88" fill="#ff9db0" rx="39.725" ry="31.635"/></g></g></g></g><g><path d="m171.498 225.953c4.142 0 7.499-3.357 7.499-7.499v-16.237c0-4.142-3.357-7.499-7.499-7.499-4.141 0-7.499 3.358-7.499 7.499v16.237c0 4.141 3.358 7.499 7.499 7.499z"/><path d="m340.502 225.953c4.141 0 7.499-3.357 7.499-7.499v-16.237c0-4.142-3.358-7.499-7.499-7.499-4.142 0-7.499 3.358-7.499 7.499v16.237c-.001 4.141 3.357 7.499 7.499 7.499z"/><path d="m256 235.619c10.706 0 20.886-4.636 27.932-12.722 2.721-3.122 2.396-7.86-.727-10.581-3.122-2.721-7.86-2.396-10.581.726-4.197 4.815-10.256 7.577-16.625 7.577s-12.428-2.761-16.625-7.577c-2.72-3.122-7.458-3.447-10.58-.726-3.123 2.721-3.448 7.458-.727 10.581 7.047 8.085 17.227 12.722 27.933 12.722z"/><path d="m256 442.071c-12.527 0-22.717 10.19-22.717 22.717s10.191 22.717 22.717 22.717 22.717-10.191 22.717-22.717-10.19-22.717-22.717-22.717zm0 30.436c-4.256 0-7.719-3.463-7.719-7.719s3.463-7.719 7.719-7.719 7.719 3.463 7.719 7.719-3.463 7.719-7.719 7.719z"/><path d="m52.597 144.819c-5.15 14.417-8.742 29.37-10.717 44.563-9.25 10.032-14.913 23.42-14.913 38.11 0 17.996 8.5 34.034 21.686 44.344-10.626 34.085 2.966 56.576 15.048 76.53 12.228 20.197 23.779 39.274 12.796 70.875-6.508 18.722 8.794 37.777 28.447 35.664 7.214-.772 14.273-2.159 21.129-4.102-4.519 15.4-7.52 33.293-7.52 53.697 0 4.142 3.357 7.499 7.499 7.499h259.894c4.142 0 7.499-3.358 7.499-7.499 0-20.404-3.001-38.298-7.52-53.698 6.892 1.953 18.339 4.259 24.061 4.259 18.442 0 31.627-18.241 25.516-35.822-8.142-23.427-3.453-39.259 1.541-50.436 1.69-3.782-.006-8.217-3.787-9.906-3.781-1.69-8.217.005-9.906 3.787-5.646 12.636-11.998 32.755-2.015 61.48 2.865 8.246-3.845 16.772-12.682 15.828-10.081-1.08-19.821-3.468-29-7.106-8.727-20.945-22.126-41.03-38.876-56.486 37.568-20.085 67.208-53.218 82.899-92.857 8.596.78 17.858-.471 26.332-3.936 6.244 23.393-1.482 39.221-12.141 57.014-2.128 3.553-.974 8.159 2.579 10.287 3.553 2.129 8.158.974 10.287-2.579 12.253-20.454 22.361-41.457 12.621-72.5 13.18-10.31 21.677-26.344 21.677-44.336 0-14.69-5.663-28.077-14.912-38.109-1.975-15.193-5.566-30.147-10.717-44.564 3.993-3.636 8.123-8.098 12.406-13.4 16.252-20.123 21.174-35.571 15.048-47.225-4.185-7.962-15.567-16.867-45.739-15.697-2.13-5.155-5.523-9.727-9.984-13.33-5.378-3.765-10.725-10.782-22.526-12.926-7.802-44.549-32.542-57.194-63.766-21.753-27.985-12.703-57.842-19.142-88.841-19.142s-60.855 6.438-88.843 19.139c-31.236-35.454-55.973-22.78-63.769 21.77-5.375.975-10.587 3.269-15.129 6.937-4.772 4.427-12.815 8.256-17.378 19.302-30.172-1.168-41.553 7.735-45.739 15.697-6.126 11.655-1.204 27.103 15.047 47.225 4.284 5.304 8.414 9.766 12.408 13.402zm-10.631 82.673c0-20.785 15.581-38.517 36.409-40.986-4.572 26.761-3.286 54.973 4.843 82.265-22.513-.012-41.252-18.302-41.252-41.279zm61.38 212.5c-8.766.938-15.574-7.506-12.681-15.828 13.297-38.261-1.276-62.33-14.134-83.567-11.397-18.825-21.382-35.317-14.539-60.99 8.391 3.418 17.51 4.74 26.327 3.935 7.765 19.661 18.926 37.714 32.935 53.463 2.343 2.635 6.124 3.22 9.107 1.64 4.366-2.312 5.291-8.02 2.103-11.605-34.217-38.507-48.47-90.554-38.708-141.231 70.821-9.106 123.162-37.085 153.998-67.973 2.552-2.557 6.009-3.674 9.41-3.341 7.739.75 7.217 6.28 29.84 22.7 36.768 26.699 85.777 42.997 131.239 48.61 29.131 150.915-145.903 255.939-265.317 160.653-3.236-2.587-7.954-2.058-10.54 1.177-.001.001-.001.002-.002.003 0 0-.001.001-.001.001-2.586 3.236-2.059 7.954 1.176 10.54 3.191 2.551 7.417 5.667 10.238 7.603 5.627 3.894 11.428 7.441 17.384 10.637-10.361 9.556-27.003 28.032-38.837 56.468-9.178 3.637-18.918 6.025-28.998 7.105zm108.759-47.781c28.572 7.112 59.231 7.118 87.79-.037v10.026c0 10.884-8.855 19.739-19.738 19.739-7.378 0-14.087-4.072-17.508-10.626-1.292-2.476-3.854-4.029-6.648-4.029-2.794 0-5.356 1.553-6.648 4.029-3.422 6.555-10.13 10.626-17.508 10.626-10.885 0-19.739-8.855-19.739-19.739v-9.989zm121.398 104.79v-39.238c0-4.142-3.358-7.499-7.499-7.499s-7.499 3.357-7.499 7.499v39.238h-125.01v-39.238c0-4.142-3.357-7.499-7.499-7.499-4.141 0-7.499 3.357-7.499 7.499v39.238h-44.803c1.842-48.239 22.753-89.212 52.235-113.515 3.677 1.556 7.406 2.98 11.177 4.282v14.432c0 19.154 15.584 34.738 34.738 34.738 9.187 0 17.783-3.585 24.156-9.763 6.373 6.178 14.969 9.763 24.157 9.763 19.154 0 34.737-15.584 34.737-34.738v-14.5c3.742-1.296 7.453-2.708 11.123-4.258 26.717 21.99 50.298 62.811 52.285 113.559zm95.28-228.229c7.911-26.564 9.557-54.921 4.843-82.265 20.487 2.388 36.409 19.912 36.409 40.986-.001 22.937-18.699 41.266-41.252 41.279zm44.798-177.601c1.357 2.583 2.766 10.758-13.44 30.823-5.309 6.574-16.043 18.667-24.43 19.752-9.817 1.341-14.863-18.049-16.746-27.779 6.67-1.852 12.778-5.819 17.22-11.316.001 0 .001-.001.002-.002.321-.633 6.763-7.369 7.441-19.223 15.961-.37 27.174 2.459 29.953 7.745zm-51.871-24.336c12.267 9.905 7.522 29.911-8.151 33.002-10.314 2.022-17.377-5.374-16.458-4.633-5.455-4.535-6.378-4.919-8.245-6.91-11.152-11.835-2.891-31.601 13.705-31.601 9.469 0 13.687 6.418 19.149 10.142zm-42.103-51.558c5.754 1.604 10.876 11.973 13.878 27.65-7.079 1.88-12.543 5.794-17.228 11.319-.611 1.041-6.709 7.525-7.44 19.222-8.243.177-26.094-.407-29.953-7.745-3.438-6.54 4.966-19.501 9.307-25.453 2.357-3.235 4.709-6.075 4.51-5.829.386-.28 16.85-21.982 26.926-19.164zm-123.607 1.069c27.574 0 54.172 5.469 79.204 16.272-.014.021-.026.04-.041.06-26.287 37.043-8.226 57.41 36.163 55.722 4.728 11.443 13.176 15.188 17.378 19.301 4.368 3.527 9.556 5.911 15.13 6.941 2.72 15.526 8.943 35.993 23.886 41.083 6.402 2.174 12.843 1.075 18.946-1.9 2.488 7.456 4.535 15.058 6.128 22.756-14.215-6.728-27.926-5.164-28.345-5.209-45.358-3.984-103.608-24.753-138.848-54.301-11.409-9.571-15.794-17.632-29.6-17.632-22.731 0-50.182 59.485-168.342 71.923-.997.09-13.964-1.638-28.452 5.218 1.593-7.698 3.639-15.299 6.127-22.756 13.758 6.757 25.593 1.991 33.285-10.72 5.029-8.253 7.897-19.01 9.544-28.449 5.933-1.078 10.672-3.493 15.132-6.955 4.408-4.219 12.725-8.038 17.377-19.3 48.352 1.872 60.147-22.459 36.123-55.784 25.033-10.801 51.631-16.27 79.205-16.27zm-123.607-1.069c8.301-2.313 22.029 12.832 27.303 19.624 5.753 7.123 18.383 24.306 12.876 31.698-4.765 6.473-21.387 7.044-29.389 6.87-.849-14.642-11.074-26.806-24.668-30.542 3.001-15.677 8.124-26.045 13.878-27.65zm-34.709 45.586c14.762-11.925 36.359 3.454 29.222 21.53-2.37 5.959-6.211 8.096-13.034 13.641-8.019 6.471-19.867 5.272-26.39-2.808 0 0 0 0 0-.001-.647-1.052-4.971-5.945-4.026-14.005 1.273-10.731 9.762-13.951 14.228-18.357zm-59.264 30.308c3.845-7.314 21.653-7.94 29.953-7.746.643 13.708 10.49 26.777 24.662 30.541-1.546 8.024-5.786 24.88-13.531 27.523-4.546 1.523-10.011-2.404-13.652-5.047-9.392-7.402-32.953-34.768-27.432-45.271z"/></g></g></svg>